<?xml version="1.0" standalone="no"?>
<!DOCTYPE svg PUBLIC "-//W3C//DTD SVG 20010904//EN"
 "http://www.w3.org/TR/2001/REC-SVG-20010904/DTD/svg10.dtd">
<svg version="1.0" xmlns="http://www.w3.org/2000/svg"
 width="2000.000000pt" height="2000.000000pt" viewBox="0 0 2000.000000 2000.000000"
 preserveAspectRatio="xMidYMid meet">
<metadata>
Created by potrace 1.11, written by Peter Selinger 2001-2013
</metadata>
<g transform="translate(0.000000,2000.000000) scale(0.100000,-0.100000)"
fill="#000000" stroke="none">
<path d="M7738 19355 c-2 -2 -34 -5 -73 -8 -38 -3 -99 -10 -135 -16 -36 -6
-83 -13 -105 -16 -135 -20 -405 -99 -595 -172 -453 -176 -964 -507 -1208 -783
-178 -201 -247 -300 -397 -576 -75 -136 -218 -507 -240 -622 -2 -12 -6 -26 -9
-30 -3 -5 -7 -19 -10 -33 -2 -13 -16 -76 -30 -139 -26 -117 -42 -204 -51 -274
-2 -21 -7 -55 -9 -75 -6 -45 -16 -127 -21 -166 -8 -68 -18 -318 -17 -435 1
-216 10 -347 37 -525 2 -11 8 -51 14 -90 32 -211 105 -503 191 -765 211 -638
577 -1314 999 -1845 123 -156 134 -168 275 -307 426 -425 904 -701 1346 -778
36 -6 76 -13 90 -16 60 -10 163 -17 260 -17 151 -1 238 7 413 39 64 12 242 66
329 100 237 93 409 199 691 427 68 55 267 255 267 268 0 3 12 19 26 35 92 105
269 412 354 617 65 157 161 451 185 567 2 8 15 66 29 127 24 109 48 239 61
333 3 25 8 56 10 70 2 14 6 54 10 90 4 36 9 80 11 99 2 19 6 73 9 120 6 107
16 251 20 271 10 52 19 334 19 565 -1 314 -13 557 -39 765 -3 19 -7 53 -10 75
-9 73 -25 191 -30 215 -3 13 -7 42 -11 64 -9 60 -68 350 -78 384 -3 9 -7 28
-10 42 -22 117 -136 472 -198 618 -320 749 -816 1306 -1422 1596 -163 78 -393
155 -541 181 -16 2 -41 8 -55 11 -25 6 -346 15 -352 9z"/>
<path d="M13948 19226 c-1 -2 -61 -6 -133 -9 -71 -4 -141 -9 -155 -11 -14 -3
-45 -7 -70 -10 -25 -3 -56 -8 -70 -11 -14 -3 -41 -8 -60 -11 -19 -3 -38 -8
-41 -10 -3 -2 -19 -5 -35 -8 -17 -3 -77 -20 -134 -37 -567 -168 -1110 -554
-1591 -1129 -251 -301 -577 -822 -715 -1145 -47 -110 -100 -262 -157 -452 -71
-234 -134 -630 -154 -968 -13 -217 -7 -715 12 -865 2 -19 6 -67 10 -107 3 -40
10 -107 15 -150 6 -43 13 -98 16 -123 17 -137 58 -364 95 -530 17 -74 32 -143
34 -153 21 -95 41 -145 110 -282 464 -910 1061 -1437 1765 -1560 381 -67 843
36 1241 275 310 187 635 482 927 840 56 69 106 130 111 136 135 168 370 527
581 889 228 391 412 830 531 1270 22 83 75 305 84 353 3 15 7 38 10 52 2 13 7
42 11 64 3 22 7 43 9 46 2 3 8 42 14 86 7 44 13 89 15 100 2 10 7 44 10 75 4
31 8 65 10 75 2 11 7 62 11 114 4 52 9 104 11 115 14 65 23 929 12 1035 -50
466 -230 891 -516 1223 -51 58 -187 193 -241 238 -29 24 -67 56 -85 71 -17 15
-34 28 -38 28 -4 0 -13 6 -20 13 -31 31 -326 216 -360 225 -4 1 -43 18 -85 38
-67 31 -258 99 -303 109 -8 2 -53 12 -100 23 -77 19 -100 24 -166 36 -12 2
-45 7 -74 11 -29 4 -62 9 -74 11 -11 2 -70 6 -131 10 -60 3 -115 7 -122 9 -6
2 -13 2 -15 1z"/>
<path d="M2099 14886 c-2 -2 -33 -6 -69 -10 -127 -12 -179 -21 -310 -51 -151
-35 -383 -134 -535 -229 -214 -134 -434 -330 -594 -531 -172 -215 -269 -380
-401 -680 -53 -121 -111 -330 -136 -485 -3 -19 -7 -42 -9 -50 -2 -8 -7 -41
-10 -73 -4 -32 -8 -67 -10 -77 -19 -100 -27 -619 -12 -780 14 -147 18 -185 22
-210 2 -14 11 -72 20 -130 17 -111 47 -265 71 -365 8 -33 17 -71 20 -85 7 -34
58 -213 96 -335 114 -369 338 -887 541 -1254 24 -42 49 -89 57 -106 37 -76
149 -257 162 -263 5 -2 8 -10 8 -17 0 -7 3 -15 8 -17 4 -1 25 -28 47 -59 200
-281 547 -602 912 -842 135 -88 185 -117 328 -187 271 -131 535 -207 865 -247
84 -10 486 -10 570 0 151 19 304 51 465 97 80 23 295 112 376 155 46 25 149
77 229 117 80 39 147 75 148 80 2 4 8 8 14 8 21 0 191 118 303 210 38 31 231
225 265 265 47 56 116 150 165 224 47 71 165 294 178 336 3 11 17 52 31 90 27
73 64 199 72 243 3 14 12 58 20 97 8 38 17 88 20 110 3 22 7 46 9 53 19 56 27
423 13 592 -9 108 -28 249 -43 316 -3 12 -7 39 -10 60 -4 21 -11 57 -17 79 -6
22 -11 49 -13 60 -11 80 -132 494 -227 780 -297 891 -753 1669 -1295 2211
-122 122 -262 246 -383 340 -197 152 -273 194 -605 334 -99 41 -346 119 -463
145 -143 32 -192 41 -297 55 -44 6 -93 14 -110 16 -34 6 -481 15 -486 10z"/>
<path d="M17857 14414 c-1 -1 -49 -4 -107 -8 -120 -7 -137 -9 -275 -38 -92
-19 -287 -78 -360 -109 -16 -7 -32 -13 -35 -14 -16 -5 -66 -28 -143 -64 -323
-154 -685 -422 -1028 -761 -364 -360 -678 -836 -966 -1465 -69 -153 -77 -170
-78 -175 -1 -3 -12 -27 -24 -55 -49 -109 -221 -535 -221 -547 0 -8 -4 -18 -9
-23 -8 -9 -18 -40 -67 -210 -18 -63 -51 -207 -58 -260 -4 -22 -8 -47 -11 -55
-2 -8 -6 -40 -10 -71 -3 -31 -8 -67 -10 -79 -22 -116 -22 -540 0 -720 1 -14 6
-50 9 -80 4 -30 9 -62 11 -70 3 -8 7 -33 10 -55 2 -22 7 -49 9 -60 2 -11 12
-56 21 -99 35 -168 123 -439 198 -611 197 -454 339 -642 595 -789 31 -19 98
-58 147 -88 98 -59 265 -142 360 -177 33 -13 69 -27 80 -31 29 -13 98 -34 188
-60 233 -65 451 -88 732 -78 27 1 164 17 195 23 14 3 41 8 60 11 126 22 341
98 460 162 67 36 271 175 385 261 325 246 695 606 932 906 116 148 251 336
323 449 15 23 75 121 95 154 88 145 229 421 303 593 134 310 312 923 356 1224
4 23 8 50 10 60 37 200 54 436 51 705 -3 227 -7 310 -20 400 -2 19 -7 53 -10
75 -6 49 -12 81 -19 103 -3 9 -7 28 -10 42 -36 189 -176 526 -282 680 -19 27
-34 52 -34 55 0 21 -174 230 -274 331 -228 228 -487 391 -766 483 -52 18 -104
36 -115 41 -17 9 -100 32 -160 46 -74 17 -203 36 -275 40 -47 3 -102 7 -123 8
-20 1 -38 2 -40 0z"/>
<path d="M9707 11534 c-1 -1 -63 -5 -137 -8 -74 -4 -142 -9 -150 -11 -8 -2
-46 -6 -85 -9 -38 -4 -81 -8 -95 -11 -14 -2 -41 -6 -60 -9 -19 -2 -57 -8 -85
-12 -54 -7 -52 -7 -170 -29 -220 -42 -606 -154 -811 -235 -414 -165 -776 -537
-1104 -1135 -113 -207 -216 -402 -397 -754 -88 -170 -124 -229 -209 -336 -83
-106 -194 -218 -295 -300 -210 -170 -396 -283 -799 -488 -551 -280 -862 -480
-1259 -813 -126 -106 -400 -369 -481 -464 -12 -14 -36 -41 -54 -60 -67 -74
-177 -210 -258 -320 -78 -106 -238 -344 -238 -354 0 -2 -17 -33 -38 -67 -48
-80 -149 -280 -192 -379 -17 -41 -40 -93 -49 -115 -23 -51 -95 -261 -117 -340
-23 -84 -62 -244 -68 -280 -3 -17 -12 -68 -20 -115 -8 -47 -18 -116 -21 -155
-4 -38 -9 -83 -12 -100 -9 -55 -11 -639 -3 -705 5 -36 12 -92 15 -125 4 -33 9
-63 11 -66 1 -3 6 -28 10 -55 3 -27 8 -51 9 -54 2 -3 6 -25 10 -50 4 -24 11
-52 16 -62 5 -10 8 -18 5 -18 -3 0 2 -23 10 -52 9 -28 17 -59 19 -67 7 -29 52
-164 83 -246 212 -563 607 -1079 1097 -1435 100 -72 223 -148 380 -236 22 -12
109 -60 193 -108 367 -206 757 -386 1087 -502 70 -25 293 -92 330 -100 11 -2
56 -13 100 -23 71 -17 131 -29 230 -45 17 -3 44 -7 60 -10 17 -3 57 -8 90 -11
33 -3 83 -7 110 -10 212 -21 660 -27 800 -12 164 19 381 52 460 71 11 2 54 12
95 21 104 22 446 111 499 130 24 8 53 17 65 19 12 3 95 28 186 56 91 28 185
57 210 65 25 7 104 32 175 55 160 51 314 98 465 140 63 17 126 36 140 40 22 8
100 22 115 21 2 0 19 5 37 10 76 22 392 31 568 16 275 -23 578 -92 1062 -243
597 -185 701 -215 984 -278 176 -40 176 -40 289 -61 124 -23 136 -25 195 -31
30 -3 66 -7 80 -10 24 -4 96 -10 235 -19 74 -5 387 -6 475 -1 144 9 305 26
440 47 36 6 79 13 95 15 58 9 222 45 355 79 679 171 1365 520 1915 974 194
160 234 201 367 376 278 367 496 808 623 1260 45 160 96 403 111 530 28 240
31 301 29 555 -2 151 -5 284 -8 295 -2 11 -8 51 -12 89 -8 78 -9 87 -31 206
-75 414 -252 864 -454 1154 -135 194 -594 648 -851 841 -15 11 -71 54 -125 96
-163 125 -511 367 -564 392 -8 4 -42 25 -75 46 -52 34 -252 154 -355 214 -102
59 -339 187 -487 263 -110 56 -180 99 -202 123 -83 90 -171 189 -192 216 -13
17 -26 32 -29 35 -61 57 -374 491 -570 790 -27 41 -158 244 -258 400 -62 96
-149 229 -193 295 -44 66 -84 129 -89 140 -21 42 -107 174 -154 236 -401 524
-971 847 -1866 1058 -69 16 -138 32 -155 35 -16 2 -68 12 -115 21 -47 9 -96
18 -110 20 -46 7 -102 17 -124 21 -11 2 -39 7 -61 9 -22 3 -51 7 -65 10 -14 3
-45 7 -70 10 -25 3 -56 7 -70 10 -28 5 -62 9 -195 24 -73 8 -241 11 -248 5z"/>
</g>
</svg>
